<mxfile host="app.diagrams.net" modified="2021-05-06T00:48:25.423Z" agent="5.0 (Windows NT 10.0; Win64; x64) AppleWebKit/537.36 (KHTML, like Gecko) Chrome/90.0.4430.93 Safari/537.36" etag="mtmIoSRx4UuJdg5hEG3m" version="14.6.10" type="github">
  <diagram id="8qoPT5kfaR1P6nTWWabQ" name="Page-1">
    <mxGraphModel dx="1422" dy="762" grid="1" gridSize="10" guides="1" tooltips="1" connect="1" arrows="1" fold="1" page="1" pageScale="1" pageWidth="850" pageHeight="1100" math="0" shadow="0">
      <root>
        <mxCell id="0" />
        <mxCell id="1" parent="0" />
        <mxCell id="4m6N_429wLsFDuNz1xIZ-1" value="" style="outlineConnect=0;dashed=0;verticalLabelPosition=bottom;verticalAlign=top;align=center;html=1;shape=mxgraph.aws3.management_console;fillColor=#D2D3D3;gradientColor=none;" vertex="1" parent="1">
          <mxGeometry x="390" y="10" width="63" height="63" as="geometry" />
        </mxCell>
        <mxCell id="4m6N_429wLsFDuNz1xIZ-20" value="" style="edgeStyle=orthogonalEdgeStyle;rounded=0;orthogonalLoop=1;jettySize=auto;html=1;" edge="1" parent="1" source="4m6N_429wLsFDuNz1xIZ-2" target="4m6N_429wLsFDuNz1xIZ-3">
          <mxGeometry relative="1" as="geometry">
            <Array as="points">
              <mxPoint x="500" y="120" />
              <mxPoint x="500" y="120" />
            </Array>
          </mxGeometry>
        </mxCell>
        <mxCell id="4m6N_429wLsFDuNz1xIZ-2" value="" style="aspect=fixed;html=1;points=[];align=center;image;fontSize=12;image=img/lib/azure2/networking/Virtual_WANs.svg;" vertex="1" parent="1">
          <mxGeometry x="389" y="100" width="65" height="64" as="geometry" />
        </mxCell>
        <mxCell id="4m6N_429wLsFDuNz1xIZ-3" value="DMZ" style="rounded=1;whiteSpace=wrap;html=1;" vertex="1" parent="1">
          <mxGeometry x="296.5" y="180" width="250" height="310" as="geometry" />
        </mxCell>
        <mxCell id="4m6N_429wLsFDuNz1xIZ-22" value="" style="edgeStyle=orthogonalEdgeStyle;rounded=0;orthogonalLoop=1;jettySize=auto;html=1;" edge="1" parent="1" source="4m6N_429wLsFDuNz1xIZ-4">
          <mxGeometry relative="1" as="geometry">
            <mxPoint x="472.75" y="205" as="targetPoint" />
          </mxGeometry>
        </mxCell>
        <mxCell id="4m6N_429wLsFDuNz1xIZ-4" value="Firewall External" style="aspect=fixed;perimeter=ellipsePerimeter;html=1;align=center;shadow=0;dashed=0;spacingTop=3;image;image=img/lib/active_directory/firewall.svg;" vertex="1" parent="1">
          <mxGeometry x="407" y="180" width="30.5" height="50" as="geometry" />
        </mxCell>
        <mxCell id="4m6N_429wLsFDuNz1xIZ-5" value="" style="aspect=fixed;perimeter=ellipsePerimeter;html=1;align=center;shadow=0;dashed=0;spacingTop=3;image;image=img/lib/active_directory/web_server.svg;" vertex="1" parent="1">
          <mxGeometry x="310" y="330" width="40" height="50" as="geometry" />
        </mxCell>
        <mxCell id="4m6N_429wLsFDuNz1xIZ-6" value="" style="aspect=fixed;perimeter=ellipsePerimeter;html=1;align=center;shadow=0;dashed=0;spacingTop=3;image;image=img/lib/active_directory/web_server.svg;" vertex="1" parent="1">
          <mxGeometry x="367" y="330" width="40" height="50" as="geometry" />
        </mxCell>
        <mxCell id="4m6N_429wLsFDuNz1xIZ-7" value="" style="fontColor=#0066CC;verticalAlign=top;verticalLabelPosition=bottom;labelPosition=center;align=center;html=1;outlineConnect=0;fillColor=#CCCCCC;strokeColor=#6881B3;gradientColor=none;gradientDirection=north;strokeWidth=2;shape=mxgraph.networks.mail_server;" vertex="1" parent="1">
          <mxGeometry x="416" y="560" width="80" height="50" as="geometry" />
        </mxCell>
        <mxCell id="4m6N_429wLsFDuNz1xIZ-8" value="" style="image;html=1;image=img/lib/clip_art/networking/Router_Icon_128x128.png" vertex="1" parent="1">
          <mxGeometry x="390" y="270" width="72" height="30" as="geometry" />
        </mxCell>
        <mxCell id="4m6N_429wLsFDuNz1xIZ-14" value="Firewall internal" style="aspect=fixed;perimeter=ellipsePerimeter;html=1;align=center;shadow=0;dashed=0;spacingTop=3;image;image=img/lib/active_directory/firewall.svg;" vertex="1" parent="1">
          <mxGeometry x="407" y="400" width="30.5" height="50" as="geometry" />
        </mxCell>
        <mxCell id="4m6N_429wLsFDuNz1xIZ-15" value="" style="shape=image;html=1;verticalAlign=top;verticalLabelPosition=bottom;labelBackgroundColor=#ffffff;imageAspect=0;aspect=fixed;image=https://cdn3.iconfinder.com/data/icons/lynx/16x16/places/gnome-fs-ssh.png" vertex="1" parent="1">
          <mxGeometry x="420" y="380" width="16" height="16" as="geometry" />
        </mxCell>
        <mxCell id="4m6N_429wLsFDuNz1xIZ-16" value="Root Disabled" style="shape=image;html=1;verticalAlign=top;verticalLabelPosition=bottom;labelBackgroundColor=#ffffff;imageAspect=0;aspect=fixed;image=https://cdn3.iconfinder.com/data/icons/lynx/16x16/places/gnome-fs-ssh.png;snapToPoint=1;" vertex="1" parent="1">
          <mxGeometry x="453" y="480" width="40" height="40" as="geometry" />
        </mxCell>
        <mxCell id="4m6N_429wLsFDuNz1xIZ-19" value="" style="edgeStyle=orthogonalEdgeStyle;rounded=0;orthogonalLoop=1;jettySize=auto;html=1;" edge="1" parent="1" source="4m6N_429wLsFDuNz1xIZ-17" target="4m6N_429wLsFDuNz1xIZ-18">
          <mxGeometry relative="1" as="geometry" />
        </mxCell>
        <mxCell id="4m6N_429wLsFDuNz1xIZ-17" value="" style="image;html=1;image=img/lib/clip_art/networking/Router_Icon_128x128.png" vertex="1" parent="1">
          <mxGeometry x="382" y="490" width="80" height="30" as="geometry" />
        </mxCell>
        <mxCell id="4m6N_429wLsFDuNz1xIZ-18" value="" style="image;html=1;image=img/lib/clip_art/computers/Database_128x128.png" vertex="1" parent="1">
          <mxGeometry x="302" y="540" width="80" height="50" as="geometry" />
        </mxCell>
        <mxCell id="4m6N_429wLsFDuNz1xIZ-25" value="" style="edgeStyle=orthogonalEdgeStyle;rounded=0;orthogonalLoop=1;jettySize=auto;html=1;" edge="1" parent="1" source="4m6N_429wLsFDuNz1xIZ-23" target="4m6N_429wLsFDuNz1xIZ-3">
          <mxGeometry relative="1" as="geometry">
            <Array as="points">
              <mxPoint x="578" y="200" />
            </Array>
          </mxGeometry>
        </mxCell>
        <mxCell id="4m6N_429wLsFDuNz1xIZ-23" value="Remote access Point&amp;nbsp;&lt;br&gt;Static IP Address." style="points=[];aspect=fixed;html=1;align=center;shadow=0;dashed=0;image;image=img/lib/allied_telesis/wireless/Access_Point_Indoor.svg;" vertex="1" parent="1">
          <mxGeometry x="560" y="90" width="36.6" height="54.6" as="geometry" />
        </mxCell>
      </root>
    </mxGraphModel>
  </diagram>
</mxfile>
